<?xml version="1.0" encoding="UTF-8"?>
<svg width="600" height="240" version="1.1" xmlns="http://www.w3.org/2000/svg" xmlns:xlink="http://www.w3.org/1999/xlink">
	<g stroke-width="3.7536">
		<path d="m165.56 167.05c-33.327-1.045-110.73-19.113-139.77-41.586-17.189-13.306-24.453-27.721-0.372-42.168 52.678-31.41 111.56-48.35 176.1-52.1 19.846-18.47 68.067-15.784 96.955-20.925 24.212 6.297-9.44 26.968 5.646 33.777 61.045 16.865 55.129-8.56 110.45-4.51 7.197 9.56-24.337 24.273-6.103 30.87l40.588 7.065c37.487 2.221 34.86-30.88 125.52-24.798 3.406 1.225 15.353 2.037 13.99 6.457-0.08 5.807-3.929 11.613-9.455 17.419-2.153 6.502-3.677 12.878-11.093 20.433-0.383 4.936-5.754 16.406-1.893 28.795 15.43 13.943 15.156 15.535 15.406 15.288 8.992 7.804 8.143 10.063 8.472 21.116-2.637 8.95-9.608 13.061-16.504 9.237-76.806 1.777-71.866-11.157-113.68-17.535-13.274-1.737-26.547 2.868-39.822 7.534 7.971 24.708-0.962 50.017-10.635 47.963-17.13-8.352-55.117-13.756-69.006-27.514l-71.029 10.762c-0.651 11.573 14.602 8.723 26.905 24.753 8.179 15.407-27.199 10.626-38.039 12.345-36.965-4.759-76.75-37.083-92.627-62.681z" fill="#231f20" fill-rule="evenodd"/>
		<path d="m37.567 102.49c17.673 13.098 34.675 20.436 54.653 31.23 14.32 5.93 19.129 1.16 23.881-3.674 4.746-5.114 9.491-10.897 14.237-22.045 3.368-8.118 5.818-1.938 6.43 0.919-0.544 8.879-4.509 17.758-12.4 26.637-2.424 8.394 7.32 7.835 13.318 4.592 17.205-10.696 17.531-30.19 15.156-55.568-0.489-4.503 4.132-13.262 9.644-2.755 5.957 14.417 14.405 17.88 30.311 18.37 75.151 1.539 142.71 7.414 209.42 13.778-76.236 11.175-142.52-19.226-228.25 13.318-9.15 5.12-16.422 11.262-7.348 16.533 43.452 25.316 87.177 50.283 177.28 16.993l113.44-28.933c3.384 0.845 33.107-26.053 11.941-32.148-2.573-0.741-235.6-53.733-235.6-53.733-62.377-5.286-117.98 12.016-173.14 30.77-5.059 3.338-14.031 5.609-6.429 12.4l38.579 21.126c10.216 6.614 0.08 9.851-5.052 7.348l-44.547-22.504c-7.355 0.381-7.92 3.307-5.511 7.348z" fill="#fff" fill-rule="evenodd"/>
		<path d="m121.65 81.844c0 5.581-5.449 10.104-12.17 10.104-6.722 0-12.171-4.523-12.171-10.104 0-5.58 5.449-10.103 12.171-10.103 6.721 0 12.17 4.523 12.17 10.103z" fill="#1b1a1c"/>
	</g>
	<g fill="#fff" fill-rule="evenodd" stroke-width="3.7536">
		<path d="m173.45 146.03c24.535 48.549 60.286 63.128 89.38 75.218 20.189-7.912-23.878-33.916-10.619-52.212z"/>
		<path d="m358.12 173.43c15.261 8.54 35.626 26.138 50.234 20.015 4.129-18.954-9.826-29.902-7.608-32.137z"/>
		<path d="m356.25 56.694c13.173-4.361 38.358-13.53 44.938-8.41 4.129 6.419-7.337 9.867-6.686 17.962z"/>
		<path d="m220.37 31.546c10.447-6.45 64.633-16.664 74.283-11.544 6.058 6.42-6.586 13.001-5.631 21.096z"/>
		<path d="m485.37 81.844c-1.399 5.611 12.775 17.779 11.085 25.263-1.695 7.506-11.785 18.759-19.517 26.265-7.851 15.985 60.583 21.861 90.875 21.548 4.732-10.908-17.614-18.679-25.481-39.337-3.125-19.567 34.349-43.704 20.796-51.537-34.835 0.993-60.324 4.379-77.759 17.8z"/>
	</g>
	<g fill="#231f20" fill-rule="evenodd" stroke="#231f20">
		<path d="m468.48 83.72 52.765 4.315-44.976 10.261z" stroke-width="4.9345"/>
		<path d="m469.98 131.77 53.402 5.621-44.033-14.052z" stroke-width="4.0805"/>
		<path d="m481.24 111.12 49.51-12.249-43.891-4.36z" stroke-linecap="round" stroke-linejoin="round" stroke-width="4.8204"/>
		<path d="m480.49 125.01 53.189-7.37-47.056-8.687z" stroke-width="4.0805"/>
	</g>
</svg>
